<?xml version="1.0" encoding="utf-8"?>
<svg viewBox="496.414 273.494 157 18" width="157" height="18" style="shape-rendering: crispedges;" xmlns="http://www.w3.org/2000/svg">
  <g style="" transform="matrix(0.294901, 0.000024, 0, 0.161317, 350.283447, 223.75856)">
    <path d="M 533.04 315.11 L 505.084 315.11 L 505.084 322.11 L 507.626 322.11 L 507.626 329.111 L 505.084 329.111 L 505.084 336.111 L 502.542 336.111 L 502.542 329.111 L 500 329.111 L 500 364.11 L 502.542 364.11 L 502.542 371.111 L 522.874 371.111 L 522.874 378.111 L 502.542 378.111 L 502.542 385.112 L 500 385.112 L 500 406.11 L 502.542 406.11 L 502.542 413.11 L 530.498 413.11 L 530.498 406.11 L 533.04 406.11 L 533.04 399.109 L 535.582 399.109 L 535.582 357.11 L 533.04 357.11 L 533.04 350.109 L 517.791 350.109 L 517.791 343.109 L 533.04 343.109 L 533.04 336.111 L 535.582 336.111 L 535.582 322.11 L 533.04 322.11 L 533.04 315.11 Z" style="fill: rgb(214, 90, 48); line-height: 51.69px; stroke: rgb(0, 0, 0); stroke-dashoffset: 3px; stroke-linecap: square; stroke-miterlimit: 22; text-transform: uppercase; white-space: pre; paint-order: stroke; stroke-width: 4.38387px;"/>
    <path d="M 573.7 315.11 L 566.075 315.11 L 566.075 322.11 L 563.534 322.11 L 563.534 385.112 L 558.451 385.112 L 558.451 322.11 L 555.909 322.11 L 555.909 315.11 L 543.202 315.11 L 543.202 322.11 L 548.284 322.11 L 548.284 329.111 L 545.744 329.111 L 545.744 336.111 L 543.202 336.111 L 543.202 322.11 L 540.66 322.11 L 540.66 399.109 L 543.202 399.109 L 543.202 406.11 L 545.744 406.11 L 545.744 413.11 L 571.158 413.11 L 571.158 406.11 L 573.7 406.11 L 573.7 399.109 L 576.241 399.109 L 576.241 322.11 L 573.7 322.11 L 573.7 315.11 Z M 616.894 315.11 L 609.27 315.11 L 609.27 322.11 L 606.728 322.11 L 606.728 350.109 L 604.186 350.109 L 604.186 357.11 L 601.645 357.11 L 601.645 350.109 L 599.103 350.109 L 599.103 322.11 L 596.561 322.11 L 596.561 315.11 L 583.854 315.11 L 583.854 322.11 L 588.937 322.11 L 588.937 329.111 L 586.396 329.111 L 586.396 336.111 L 583.854 336.111 L 583.854 322.11 L 581.312 322.11 L 581.312 406.11 L 583.854 406.11 L 583.854 413.11 L 596.561 413.11 L 596.561 406.11 L 599.103 406.11 L 599.103 385.112 L 601.645 385.112 L 601.645 392.109 L 604.186 392.109 L 604.186 385.112 L 606.728 385.112 L 606.728 406.11 L 609.27 406.11 L 609.27 413.11 L 616.894 413.11 L 616.894 406.11 L 619.435 406.11 L 619.435 322.11 L 616.894 322.11 L 616.894 315.11 Z M 660.091 315.11 L 652.467 315.11 L 652.467 322.11 L 649.926 322.11 L 649.926 350.109 L 647.384 350.109 L 647.384 357.11 L 644.842 357.11 L 644.842 350.109 L 642.301 350.109 L 642.301 322.11 L 639.759 322.11 L 639.759 315.11 L 627.052 315.11 L 627.052 322.11 L 632.135 322.11 L 632.135 329.111 L 629.593 329.111 L 629.593 336.111 L 627.052 336.111 L 627.052 322.11 L 624.51 322.11 L 624.51 406.11 L 627.052 406.11 L 627.052 413.11 L 639.759 413.11 L 639.759 406.11 L 642.301 406.11 L 642.301 385.112 L 644.842 385.112 L 644.842 392.109 L 647.384 392.109 L 647.384 385.112 L 649.926 385.112 L 649.926 406.11 L 652.467 406.11 L 652.467 413.11 L 660.091 413.11 L 660.091 406.11 L 662.633 406.11 L 662.633 322.11 L 660.091 322.11 L 660.091 315.11 Z M 700.748 315.11 L 670.249 315.11 L 670.249 322.11 L 675.333 322.11 L 675.333 329.111 L 672.791 329.111 L 672.791 336.111 L 670.249 336.111 L 670.249 322.11 L 667.708 322.11 L 667.708 406.11 L 670.249 406.11 L 670.249 413.11 L 700.748 413.11 L 700.748 406.11 L 703.289 406.11 L 703.289 392.109 L 700.748 392.109 L 700.748 385.112 L 685.498 385.112 L 685.498 371.111 L 700.748 371.111 L 700.748 364.11 L 703.289 364.11 L 703.289 357.11 L 700.748 357.11 L 700.748 350.109 L 685.498 350.109 L 685.498 336.111 L 700.748 336.111 L 700.748 329.111 L 703.289 329.111 L 703.289 322.11 L 700.748 322.11 L 700.748 315.11 Z M 741.407 322.11 L 738.866 322.11 L 738.866 315.11 L 710.909 315.11 L 710.909 322.11 L 715.992 322.11 L 715.992 329.111 L 713.451 329.111 L 713.451 336.111 L 710.909 336.111 L 710.909 322.11 L 708.367 322.11 L 708.367 406.11 L 710.909 406.11 L 710.909 413.11 L 723.616 413.11 L 723.616 406.11 L 726.158 406.11 L 726.158 385.112 L 728.7 385.112 L 728.7 392.109 L 731.241 392.109 L 731.241 399.109 L 733.783 399.109 L 733.783 406.11 L 736.325 406.11 L 736.325 413.11 L 741.407 413.11 L 741.407 406.11 L 743.949 406.11 L 743.949 378.111 L 741.407 378.111 L 741.407 371.111 L 738.866 371.111 L 738.866 364.11 L 741.407 364.11 L 741.407 357.11 L 743.949 357.11 L 743.949 329.111 L 741.407 329.111 L 741.407 322.11 Z M 733.783 350.109 L 726.158 350.109 L 726.158 336.111 L 733.783 336.111 L 733.783 350.109 Z" style="fill: rgb(214, 90, 48); line-height: 51.69px; stroke: rgb(0, 0, 0); stroke-dashoffset: 3px; stroke-linecap: square; stroke-miterlimit: 22; text-transform: uppercase; white-space: pre; paint-order: stroke; stroke-width: 4.38387px;"/>
    <path d="M 817.643 315.11 L 789.687 315.11 L 789.687 322.11 L 792.228 322.11 L 792.228 329.111 L 789.687 329.111 L 789.687 336.111 L 787.145 336.111 L 787.145 329.111 L 784.603 329.111 L 784.603 364.11 L 787.145 364.11 L 787.145 371.111 L 807.477 371.111 L 807.477 378.111 L 787.145 378.111 L 787.145 385.112 L 784.603 385.112 L 784.603 406.11 L 787.145 406.11 L 787.145 413.11 L 815.101 413.11 L 815.101 406.11 L 817.643 406.11 L 817.643 399.109 L 820.185 399.109 L 820.185 357.11 L 817.643 357.11 L 817.643 350.109 L 802.394 350.109 L 802.394 343.109 L 817.643 343.109 L 817.643 336.111 L 820.185 336.111 L 820.185 322.11 L 817.643 322.11 L 817.643 315.11 Z M 858.296 315.11 L 850.671 315.11 L 850.671 322.11 L 848.13 322.11 L 848.13 385.112 L 843.047 385.112 L 843.047 322.11 L 840.506 322.11 L 840.506 315.11 L 827.797 315.11 L 827.797 322.11 L 832.881 322.11 L 832.881 329.111 L 830.339 329.111 L 830.339 336.111 L 827.797 336.111 L 827.797 322.11 L 825.257 322.11 L 825.257 399.109 L 827.797 399.109 L 827.797 406.11 L 830.339 406.11 L 830.339 413.11 L 855.755 413.11 L 855.755 406.11 L 858.296 406.11 L 858.296 399.109 L 860.838 399.109 L 860.838 322.11 L 858.296 322.11 L 858.296 315.11 Z M 898.956 315.11 L 891.331 315.11 L 891.331 322.11 L 888.789 322.11 L 888.789 357.11 L 886.248 357.11 L 886.248 350.109 L 883.706 350.109 L 883.706 322.11 L 881.165 322.11 L 881.165 315.11 L 868.457 315.11 L 868.457 322.11 L 873.54 322.11 L 873.54 329.111 L 870.999 329.111 L 870.999 336.111 L 868.457 336.111 L 868.457 322.11 L 865.915 322.11 L 865.915 406.11 L 868.457 406.11 L 868.457 413.11 L 881.165 413.11 L 881.165 406.11 L 883.706 406.11 L 883.706 378.111 L 886.248 378.111 L 886.248 385.112 L 888.789 385.112 L 888.789 406.11 L 891.331 406.11 L 891.331 413.11 L 898.956 413.11 L 898.956 406.11 L 901.496 406.11 L 901.496 322.11 L 898.956 322.11 L 898.956 315.11 Z M 939.608 315.11 L 911.652 315.11 L 911.652 322.11 L 914.193 322.11 L 914.193 329.111 L 911.652 329.111 L 911.652 336.111 L 909.11 336.111 L 909.11 329.111 L 906.569 329.111 L 906.569 364.11 L 909.11 364.11 L 909.11 371.111 L 929.443 371.111 L 929.443 378.111 L 909.11 378.111 L 909.11 385.112 L 906.569 385.112 L 906.569 406.11 L 909.11 406.11 L 909.11 413.11 L 937.067 413.11 L 937.067 406.11 L 939.608 406.11 L 939.608 399.109 L 942.15 399.109 L 942.15 357.11 L 939.608 357.11 L 939.608 350.109 L 924.359 350.109 L 924.359 343.109 L 939.608 343.109 L 939.608 336.111 L 942.15 336.111 L 942.15 322.11 L 939.608 322.11 L 939.608 315.11 Z M 980.268 315.11 L 949.77 315.11 L 949.77 322.11 L 954.852 322.11 L 954.852 329.111 L 952.311 329.111 L 952.311 336.111 L 949.77 336.111 L 949.77 322.11 L 947.228 322.11 L 947.228 406.11 L 949.77 406.11 L 949.77 413.11 L 980.268 413.11 L 980.268 406.11 L 982.81 406.11 L 982.81 392.109 L 980.268 392.109 L 980.268 385.112 L 965.019 385.112 L 965.019 371.111 L 980.268 371.111 L 980.268 364.11 L 982.81 364.11 L 982.81 357.11 L 980.268 357.11 L 980.268 350.109 L 965.019 350.109 L 965.019 336.111 L 980.268 336.111 L 980.268 329.111 L 982.81 329.111 L 982.81 322.11 L 980.268 322.11 L 980.268 315.11 Z M 1020.92 315.11 L 990.422 315.11 L 990.422 322.11 L 995.506 322.11 L 995.506 329.111 L 992.964 329.111 L 992.964 336.111 L 990.422 336.111 L 990.422 343.109 L 998.047 343.109 L 998.047 406.11 L 1000.588 406.11 L 1000.588 413.11 L 1010.755 413.11 L 1010.755 406.11 L 1013.296 406.11 L 1013.296 343.109 L 1020.92 343.109 L 1020.92 336.111 L 1023.462 336.111 L 1023.462 322.11 L 1020.92 322.11 L 1020.92 315.11 Z M 990.422 322.11 L 987.881 322.11 L 987.881 336.111 L 990.422 336.111 L 990.422 322.11 Z" style="fill: rgb(225, 128, 38); line-height: 51.69px; stroke: rgb(0, 0, 0); stroke-dashoffset: 3px; stroke-linecap: square; stroke-miterlimit: 22; text-transform: uppercase; white-space: pre; paint-order: stroke; stroke-width: 4.38387px;"/>
  </g>
</svg>